<svg width="2194" height="2500" viewBox="175.7 78 490.6 436.9" xmlns="http://www.w3.org/2000/svg" xmlns:xlink="http://www.w3.org/1999/xlink" overflow="hidden"><g fill="#61DAFB"><path d="M666.3 296.5C666.3 264 625.6 233.2 563.2 214.1 577.6 150.5 571.2 99.9 543 83.7 536.5 79.9 528.9 78.1 520.6 78.1L520.6 100.4C525.2 100.4 528.9 101.3 532 103 545.6 110.8 551.5 140.5 546.9 178.7 545.8 188.1 544 198 541.8 208.1 522.2 203.3 500.8 199.6 478.3 197.2 464.8 178.7 450.8 161.9 436.7 147.2 469.3 116.9 499.9 100.3 520.7 100.3L520.7 78C493.2 78 457.2 97.6 420.8 131.6 384.4 97.8 348.4 78.4 320.9 78.4L320.9 100.7C341.6 100.7 372.3 117.2 404.9 147.3 390.9 162 376.9 178.7 363.6 197.2 341 199.6 319.6 203.3 300 208.2 297.7 198.2 296 188.5 294.8 179.2 290.1 141 295.9 111.3 309.4 103.4 312.4 101.6 316.3 100.8 320.9 100.8L320.9 78.5C312.5 78.5 304.9 80.3 298.3 84.1 270.2 100.3 263.9 150.8 278.4 214.2 216.2 233.4 175.7 264.1 175.7 296.5 175.7 329 216.4 359.8 278.8 378.9 264.4 442.5 270.8 493.1 299 509.3 305.5 513.1 313.1 514.9 321.5 514.9 349 514.9 385 495.3 421.4 461.3 457.8 495.1 493.8 514.5 521.3 514.5 529.7 514.5 537.3 512.7 543.9 508.9 572 492.7 578.3 442.2 563.8 378.8 625.8 359.7 666.3 328.9 666.3 296.5ZM536.1 229.8C532.4 242.7 527.8 256 522.6 269.3 518.5 261.3 514.2 253.3 509.5 245.3 504.9 237.3 500 229.5 495.1 221.9 509.3 224 523 226.6 536.1 229.8ZM490.3 336.3C482.5 349.8 474.5 362.6 466.2 374.5 451.3 375.8 436.2 376.5 421 376.5 405.9 376.5 390.8 375.8 376 374.6 367.7 362.7 359.6 350 351.8 336.6 344.2 323.5 337.3 310.2 331 296.8 337.2 283.4 344.2 270 351.7 256.9 359.5 243.4 367.5 230.6 375.8 218.7 390.7 217.4 405.8 216.7 421 216.7 436.1 216.7 451.2 217.4 466 218.6 474.3 230.5 482.4 243.2 490.2 256.6 497.8 269.7 504.7 283 511 296.4 504.7 309.8 497.8 323.2 490.3 336.3ZM522.6 323.3C528 336.7 532.6 350.1 536.4 363.1 523.3 366.3 509.5 369 495.2 371.1 500.1 363.4 505 355.5 509.6 347.4 514.2 339.4 518.5 331.3 522.6 323.3ZM421.2 430C411.9 420.4 402.6 409.7 393.4 398 402.4 398.4 411.6 398.7 420.9 398.7 430.3 398.7 439.6 398.5 448.7 398 439.7 409.7 430.4 420.4 421.2 430ZM346.8 371.1C332.6 369 318.9 366.4 305.8 363.2 309.5 350.3 314.1 337 319.3 323.7 323.4 331.7 327.7 339.7 332.4 347.7 337.1 355.7 341.9 363.5 346.8 371.1ZM420.7 163C430 172.6 439.3 183.3 448.5 195 439.5 194.6 430.3 194.3 421 194.3 411.6 194.3 402.3 194.5 393.2 195 402.2 183.3 411.5 172.6 420.7 163ZM346.7 221.9C341.8 229.6 336.9 237.5 332.3 245.6 327.7 253.6 323.4 261.6 319.3 269.6 313.9 256.2 309.3 242.8 305.5 229.8 318.6 226.7 332.4 224 346.7 221.9ZM256.2 347.1C220.8 332 197.9 312.2 197.9 296.5 197.9 280.8 220.8 260.9 256.2 245.9 264.8 242.2 274.2 238.9 283.9 235.8 289.6 255.4 297.1 275.8 306.4 296.7 297.2 317.5 289.8 337.8 284.2 357.3 274.3 354.2 264.9 350.8 256.2 347.1ZM310 490C296.4 482.2 290.5 452.5 295.1 414.3 296.2 404.9 298 395 300.2 384.9 319.8 389.7 341.2 393.4 363.7 395.8 377.2 414.3 391.2 431.1 405.3 445.8 372.7 476.1 342.1 492.7 321.3 492.7 316.8 492.6 313 491.7 310 490ZM547.2 413.8C551.9 452 546.1 481.7 532.6 489.6 529.6 491.4 525.7 492.2 521.1 492.2 500.4 492.2 469.7 475.7 437.1 445.6 451.1 430.9 465.1 414.2 478.4 395.7 501 393.3 522.4 389.6 542 384.7 544.3 394.8 546.1 404.5 547.2 413.8ZM585.7 347.1C577.1 350.8 567.7 354.1 558 357.2 552.3 337.6 544.8 317.2 535.5 296.3 544.7 275.5 552.1 255.2 557.7 235.7 567.6 238.8 577 242.2 585.8 245.9 621.2 261 644.1 280.8 644.1 296.5 644 312.2 621.1 332.1 585.7 347.1Z"/><circle cx="420.9" cy="296.5" r="45.7"/></g></svg>